<?xml version="1.0" standalone="no"?>
<!DOCTYPE svg PUBLIC "-//W3C//DTD SVG 1.1//EN" "http://www.w3.org/Graphics/SVG/1.1/DTD/svg11.dtd" >
<svg>
<metadata>
Created by FontForge 20090914 at Fri Feb 24 08:18:17 2012
 By root
Ruben Tarumian. 1995. All Rights Reserved
</metadata>
<defs>
<font id="ArTarumianMHarvats" horiz-adv-x="1120" >
  <font-face 
    font-family="ArTarumianMHarvats"
    font-weight="400"
    font-stretch="normal"
    units-per-em="2048"
    panose-1="2 2 6 3 5 4 5 2 3 4"
    ascent="1638"
    descent="-410"
    x-height="1327"
    cap-height="1619"
    bbox="-19 -303 1981 1758"
    underline-thickness="100"
    underline-position="-173"
    unicode-range="U+0020-U+00FF"
  />
<missing-glyph horiz-adv-x="1024" 
d="M128 0v1648h768v-1648h-768zM256 128h512v1392h-512v-1392z" />
    <glyph glyph-name=".notdef" horiz-adv-x="1024" 
d="M128 0v1648h768v-1648h-768zM256 128h512v1392h-512v-1392z" />
    <glyph glyph-name=".null" horiz-adv-x="0" 
 />
    <glyph glyph-name="nonmarkingreturn" horiz-adv-x="361" 
 />
    <glyph glyph-name="space" unicode=" " horiz-adv-x="361" 
 />
    <glyph glyph-name="exclam" unicode="!" horiz-adv-x="553" 
d="M516 1619l-66 -1219h-312l-66 1219h444zM483 324v-324h-378v324h378z" />
    <glyph glyph-name="quotedbl" unicode="&#x22;" horiz-adv-x="757" 
d="M89 1098l-53 273v248h306v-248l-46 -273h-207zM468 1098l-53 273v248h306v-248l-47 -273h-206z" />
    <glyph glyph-name="numbersign" unicode="#" horiz-adv-x="1750" 
d="M888 0h-876v245l324 1055l-174 63l111 305l572 -198l-371 -1146h414v-324zM1420 1079v-93q0 -141 -124 -222q-112 -73 -275 -73q-160 0 -160 205v102h243v-126q0 -40 35 -40q38 0 38 42v197h-35q-157 0 -219.5 44t-62.5 153v78h241l1 -58q1 -71 40 -71h35v285h315v-159
h-72v-121h38q147 0 209 -35q69 -38 69 -134v-67l-243 -1q0 15 -1 44q-1 52 -32 51z" />
    <glyph glyph-name="dollar" unicode="$" horiz-adv-x="1121" 
d="M1019 1147h-404v67q0 89 -4 109q-14 64 -70 64q-74 0 -74 -114q0 -94 38 -133t218 -148q153 -93 210 -143q133 -117 133 -365q0 -431 -416 -491v-152h-186v157q-404 37 -404 503v79h404v-99q0 -150 -1 -144q11 -98 74 -98q80 0 81 109q1 131 -19 194q-18 58 -130 128
q-175 110 -209 136q-107 83 -158 188q-48 98 -48 224q0 360 410 411v129h186v-129q373 -48 373 -406q0 -29 -4 -76z" />
    <glyph glyph-name="percent" unicode="%" horiz-adv-x="1419" 
d="M1103 1650l-633 -1681h-154l635 1681h152zM632 1343v-278q0 -101 -16 -148q-22 -69 -93 -111q-65 -39 -178 -40q-227 -1 -286 131q-23 52 -23 155v291q0 120 24.5 178t102.5 97q67 32 165 32q221 0 280 -135q24 -55 24 -172zM376 1414q0 56 -1 62q-7 32 -41 32
q-33 0 -41 -33q-2 -9 -2 -61v-408q0 -62 1 -65q6 -32 43 -33q31 -1 38 33q3 11 3 58v415zM1383 561v-279q0 -106 -21 -163q-50 -135 -266 -136q-227 -1 -286 132q-23 52 -23 154v292q0 107 17 157q25 73 102 113q70 36 173 37q221 2 280 -136q24 -56 24 -171zM1127 631
q0 55 -1 62q-7 32 -41 33q-26 1 -34 -16t-8 -79v-408q0 -61 1 -64q6 -32 42 -33q32 -1 39 32q2 7 2 59v414z" />
    <glyph glyph-name="ampersand" unicode="&#x26;" horiz-adv-x="1188" 
d="M593 0l7 122q-88 -147 -261 -147q-266 0 -266 342l-1 1010h404l1 -1049q0 -67 59 -67q64 0 64 69v387h404v-401h183v-266h-594z" />
    <glyph glyph-name="quotesingle" unicode="'" horiz-adv-x="379" 
d="M89 1098l-53 273v248h306v-248l-46 -273h-207z" />
    <glyph glyph-name="parenleft" unicode="(" horiz-adv-x="642" 
d="M605 1619v-211q-72 0 -80 -1q-50 -7 -64 -39q-11 -25 -11 -144v-829q0 -88 1 -96q7 -66 41 -79q24 -9 113 -9v-211h-127q-313 0 -368 128q-26 61 -26 268v827q0 169 10 213q25 112 127 151q84 32 257 32h127z" />
    <glyph glyph-name="parenright" unicode=")" horiz-adv-x="642" 
d="M36 1619h127q315 0 368 -128q26 -63 26 -268v-827q0 -168 -10 -212q-24 -113 -125 -152q-83 -32 -259 -32h-127v211q72 0 83 2q51 7 63 43q10 30 10 139v829q0 119 -12 144.5t-37 32.5q-20 5 -107 7v211z" />
    <glyph glyph-name="asterisk" unicode="*" horiz-adv-x="575" 
d="M352 1619v-161l148 51l45 -118l-148 -62l93 -132l-100 -74l-101 133l-99 -133l-105 74l94 137l-149 57l43 118l153 -51v161h126z" />
    <glyph glyph-name="plus" unicode="+" horiz-adv-x="1092" 
d="M64 930h359v360h244v-360h361v-244h-361v-358h-244v358h-359v244z" />
    <glyph glyph-name="comma" unicode="," horiz-adv-x="344" 
d="M307 317v-145q0 -217 -121 -311q-64 -50 -150 -68v116q59 32 68 91h-68v317h271z" />
    <glyph glyph-name="hyphen" unicode="-" horiz-adv-x="603" 
d="M567 803v-279h-531v279h531z" />
    <glyph glyph-name="hyphen" unicode="&#x2010;" horiz-adv-x="603" 
d="M567 803v-279h-531v279h531z" />
    <glyph glyph-name="period" unicode="." horiz-adv-x="378" 
d="M341 330v-330h-305v330h305z" />
    <glyph glyph-name="slash" unicode="/" horiz-adv-x="810" 
d="M798 1650l-480 -1681h-306l483 1681h303z" />
    <glyph glyph-name="zero" unicode="0" horiz-adv-x="1098" 
d="M1025 1071v-540q0 -158 -12 -224q-20 -120 -91 -201q-119 -136 -351 -137q-282 -2 -394 138q-69 86 -90 188q-15 70 -15 211v565q0 198 24 288q40 150 167 224q113 66 278 67q130 1 238 -47q187 -82 227 -264q19 -86 19 -268zM621 1207q0 108 -2 121q-12 73 -69 73
q-58 0 -71 -74q-3 -18 -3 -120v-790v-123q11 -75 72 -76q57 -1 70 71q3 19 3 116v802z" />
    <glyph glyph-name="one" unicode="1" horiz-adv-x="780" 
d="M695 1619v-1619h-404v868q0 181 2 155q-8 102 -61 128q-42 20 -180 20h-40v189q292 63 445 259h238z" />
    <glyph glyph-name="two" unicode="2" horiz-adv-x="1028" 
d="M943 276v-276h-889v231l307 500q237 411 237 539q0 64 -22.5 97.5t-68.5 33.5q-61 0 -81 -64q-10 -34 -10 -115v-154h-362v59q0 132 10 193q17 98 73 176q110 154 354 154q213 0 344 -102q143 -113 144 -320q1 -137 -70 -294t-409 -658h443z" />
    <glyph glyph-name="three" unicode="3" horiz-adv-x="1086" 
d="M831 917q90 -29 137 -102q45 -69 45 -330q0 -170 -31 -264q-44 -137 -165 -198q-106 -54 -277 -55q-364 -2 -446 222q-34 92 -34 325v128h404v-263q0 -91 2 -103q12 -58 66 -59q63 -1 75 88q2 12 2 136v112q0 163 -83 192q-37 13 -159 16v235h126q80 9 101 59
q15 35 15 116v90q0 139 -72 139q-53 0 -67 -53q-6 -23 -6 -97v-133h-404v138q0 227 110 316q99 79 333 79q249 0 363 -88q131 -101 132 -339q1 -123 -30 -184q-35 -68 -137 -123z" />
    <glyph glyph-name="four" unicode="4" horiz-adv-x="1023" 
d="M896 1619v-1058h115v-276h-115v-285h-404v285h-480v276l349 1058h535zM492 561v689l-178 -689h178z" />
    <glyph glyph-name="five" unicode="5" horiz-adv-x="1099" 
d="M954 1619v-259h-501v-275q93 111 242 111q201 0 278 -132q60 -102 60 -321v-231q0 -170 -17 -253q-38 -184 -221 -254q-95 -36 -235 -36q-344 0 -444 217q-50 108 -50 334v88h404v-101q0 -163 1 -171q14 -118 86 -118q62 0 68 60q4 40 4 191v321q0 157 -82 157
q-53 0 -72 -54q-3 -14 -5 -90h-400l17 816h867z" />
    <glyph glyph-name="six" unicode="6" horiz-adv-x="1109" 
d="M1042 1189h-404q0 123 1 100q-3 69 -28 92q-21 19 -58 20q-66 1 -74 -68q-3 -25 -3 -121v-258q60 130 239 130q101 0 186 -53q92 -58 118 -151q23 -83 23 -227v-129q0 -160 -7 -213q-16 -119 -76 -194q-120 -148 -384 -148q-310 0 -428 174q-63 93 -75 262v277v224
q0 303 -1 295q12 179 79 276q119 173 410 174q336 2 435 -210q45 -97 47 -252zM638 684q0 149 -81 150t-81 -150v-293q0 -82 7 -110q16 -63 73 -63q82 0 82 163v303z" />
    <glyph glyph-name="seven" unicode="7" horiz-adv-x="802" 
d="M784 1619v-353l-258 -1266h-402l287 1328h-399v291h772z" />
    <glyph glyph-name="eight" unicode="8" horiz-adv-x="1095" 
d="M843 918q130 -53 166 -184q19 -68 19 -264q0 -174 -26 -254q-39 -123 -160 -188q-108 -58 -295 -59q-334 -1 -436 208q-45 92 -45 313q0 174 19 243q33 123 145 185q-149 71 -150 314q-1 207 115.5 312.5t347.5 105.5q238 0 350 -94q121 -102 121 -334q0 -125 -32 -183
q-33 -62 -139 -121zM616 1266q0 65 -7 88q-14 47 -63 47q-47 0 -61 -48q-7 -23 -7 -87v-123q0 -128 70 -129q49 -1 62 50q6 22 6 91v111zM624 593q0 70 -9 99q-17 54 -70 55q-52 1 -68 -56q-7 -26 -7 -98v-210q0 -79 7 -106q17 -59 74 -59q55 0 69 62q4 20 4 106v207z" />
    <glyph glyph-name="nine" unicode="9" horiz-adv-x="1109" 
d="M72 430h404q0 -127 -1 -100q3 -68 28 -92q20 -19 59 -20q66 -1 73 68q3 31 3 121v258q-60 -129 -239 -130q-101 -1 -186 53q-92 58 -118 151q-23 83 -23 227v129q0 160 7 212q16 118 76 194q56 71 154.5 110t230.5 39q308 0 427 -175q63 -93 74 -260q1 -9 1 -277v-225
q0 -292 -8 -387q-9 -104 -74 -189.5t-162 -125.5q-103 -42 -243 -43q-169 -1 -280 55q-200 101 -203 407zM476 935q0 -150 81 -150t81 150v293q0 80 -7 109q-17 64 -73 64q-26 0 -54 -26t-28 -137v-303z" />
    <glyph glyph-name="colon" unicode=":" horiz-adv-x="414" 
d="M377 1054v-329h-305v329h305zM377 330v-330h-305v330h305z" />
    <glyph glyph-name="semicolon" unicode=";" horiz-adv-x="414" 
d="M377 1054v-329h-305v329h305zM360 317v-145q0 -217 -121 -311q-64 -50 -150 -68v116q59 32 68 91h-68v317h271z" />
    <glyph glyph-name="less" unicode="&#x3c;" horiz-adv-x="1092" 
d="M1027 324l-962 401v203l962 402v-264l-594 -239l594 -238v-265z" />
    <glyph glyph-name="equal" unicode="=" horiz-adv-x="1092" 
d="M65 1122h962v-244h-962v244zM65 740h962v-244h-962v244z" />
    <glyph glyph-name="greater" unicode="&#x3e;" horiz-adv-x="1092" 
d="M65 1330l962 -400v-204l-962 -402v264l594 239l-594 238v265z" />
    <glyph glyph-name="question" unicode="?" horiz-adv-x="1075" 
d="M488 1097h-404q1 192 24 272q37 131 159 210q113 73 290 74q253 1 373 -152q69 -89 92 -196q16 -74 16 -218v-198q0 -132 -20 -200q-29 -98 -113.5 -160t-197.5 -63q-147 -1 -219 115v-174h-377v445h368q1 -91 66 -92q63 -1 76 94q1 11 1 145v269q0 71 -5 92
q-12 57 -57 58q-58 1 -70 -90q-2 -14 -2 -133v-98zM488 324v-324h-377v324h377z" />
    <glyph glyph-name="at" unicode="@" horiz-adv-x="1587" 
d="M1193 1308l-127 -792q-1 -14 -4 -35q0 -39 37 -39q78 0 154 79q59 62 99 149q53 114 53 264q0 253 -151 410q-154 160 -405 160q-309 0 -491 -215q-174 -204 -174 -517q0 -307 171 -498q179 -200 480 -200q279 0 505 187h210q-125 -160 -318 -249q-189 -87 -396 -87
q-360 0 -583 241q-217 235 -217 597q0 384 210 629q223 261 599 261q408 0 611 -332q97 -158 97 -387q0 -240 -133 -437q-150 -222 -381 -223q-129 -1 -157 116q-119 -116 -236 -117q-165 -1 -253 136q-76 116 -76 290q0 220 104 411q124 228 327 228q141 0 231 -144l16 114
h198zM525 642q0 -83 32 -145q40 -78 115 -79q136 -2 206 260q42 156 42 303q0 114 -58 169q-34 32 -83 32q-135 1 -204 -214q-50 -154 -50 -326z" />
    <glyph glyph-name="A" unicode="A" horiz-adv-x="1040" 
d="M811 1619l241 -1619h-431l-21 291h-151l-25 -291h-436l214 1619h609zM588 578q-30 261 -64 679q-61 -445 -80 -679h144z" />
    <glyph glyph-name="B" unicode="B" horiz-adv-x="1131" 
d="M84 1619h420q177 0 258 -19q138 -33 209 -138q63 -93 63 -304q0 -138 -44 -195t-176 -89q146 -33 201 -115q49 -73 49 -229v-150q0 -163 -38 -243q-49 -102 -200 -128q-55 -9 -255 -9h-487v1619zM505 1342v-360q32 0 42 1q77 0 93 69q2 11 3 136q1 126 -51 145
q-20 7 -87 9zM505 730v-453q90 3 115 32q23 26 23 119v151q0 104 -21.5 125.5t-116.5 25.5z" />
    <glyph glyph-name="C" unicode="C" horiz-adv-x="1134" 
d="M1067 913h-421v282q0 122 -14 152.5t-59 31.5q-62 1 -77 -74q-3 -18 -3 -123v-752q0 -100 4 -119q13 -71 73 -71t73 80q3 17 3 125v203h421v-63q0 -220 -21 -303q-38 -150 -172 -237q-121 -78 -299 -79q-182 -1 -305 67q-133 73 -174 237q-24 94 -24 305v473q0 169 7 224
q16 125 76 207q127 173 408 174q154 1 275 -55q145 -67 191 -197q38 -107 38 -334v-154z" />
    <glyph glyph-name="D" unicode="D" horiz-adv-x="1132" 
d="M84 1619h315q228 0 303 -9q197 -23 273 -111q67 -77 81 -215q3 -31 3 -236v-567q0 -216 -21 -292q-38 -138 -197 -173q-73 -16 -226 -16h-531v1619zM505 1342v-1065q104 0 126 69q7 22 7 166v629v100q-7 67 -39 86q-26 15 -94 15z" />
    <glyph glyph-name="E" unicode="E" horiz-adv-x="851" 
d="M84 1619h702v-324h-281v-307h263v-308h-263v-356h309v-324h-730v1619z" />
    <glyph glyph-name="F" unicode="F" horiz-adv-x="815" 
d="M84 1619h713v-324h-292v-307h260v-308h-260v-680h-421v1619z" />
    <glyph glyph-name="G" unicode="G" horiz-adv-x="1129" 
d="M1050 1023h-421v147q0 122 -1 126q-10 82 -68 83q-53 1 -65 -72q-2 -15 -2 -112v-777q0 -90 4 -110q13 -67 66 -68q57 -1 73 73q6 30 6 118v192h-85v246h493v-869h-265l-39 116q-42 -75 -107.5 -112t-155.5 -38q-100 -1 -193 47.5t-146 131.5q-51 80 -65 198
q-7 58 -7 212v481q0 223 15 292q31 148 152 236t308 89q151 1 275 -59q146 -69 191 -198q37 -106 37 -303v-70z" />
    <glyph glyph-name="H" unicode="H" horiz-adv-x="1137" 
d="M1052 1619v-1619h-421v680h-126v-680h-421v1619h421v-579h126v579h421z" />
    <glyph glyph-name="I" unicode="I" horiz-adv-x="590" 
d="M505 1619v-1619h-421v1619h421z" />
    <glyph glyph-name="J" unicode="J" horiz-adv-x="678" 
d="M599 1619v-1082q0 -279 2 -225q-6 -148 -53 -213.5t-145 -86.5q-56 -12 -174 -12h-211v283q38 -3 55 -3q92 0 101 76q4 34 4 124v1139h421z" />
    <glyph glyph-name="K" unicode="K" horiz-adv-x="1099" 
d="M1087 1619l-241 -731l264 -888h-435l-170 694v-694h-421v1619h421v-629l187 629h395z" />
    <glyph glyph-name="L" unicode="L" horiz-adv-x="779" 
d="M505 1619v-1295h256v-324h-677v1619h421z" />
    <glyph glyph-name="M" unicode="M" horiz-adv-x="1468" 
d="M1383 1619v-1619h-368v1093l-147 -1093h-261l-155 1068v-1068h-368v1619h545q18 -106 51 -344l58 -412l96 756h549z" />
    <glyph glyph-name="N" unicode="N" horiz-adv-x="1109" 
d="M1024 1619v-1619h-369l-219 736v-736h-352v1619h352l236 -729v729h352z" />
    <glyph glyph-name="O" unicode="O" horiz-adv-x="1119" 
d="M1046 671q0 -238 -3 -274q-14 -164 -81 -257q-125 -174 -403 -174q-273 0 -400 170q-70 94 -84 258q-3 33 -3 277v277q0 244 3 274q13 163 80 257q124 174 404 174q272 0 400 -170q70 -93 84 -258q3 -33 3 -277v-277zM625 1203q0 90 -3 107q-11 68 -61 69
q-33 1 -50.5 -25t-17.5 -151v-756q0 -126 0 -124q10 -83 65 -83t66 90q1 6 1 129v744z" />
    <glyph glyph-name="P" unicode="P" horiz-adv-x="1028" 
d="M84 1619h424q307 0 403 -105q54 -60 71 -165q9 -57 9 -183v-141q0 -135 -21 -196q-32 -95 -129 -139q-85 -38 -223 -38h-113v-652h-421v1619zM505 1342v-412q22 0 31 -1q67 0 88 42q15 29 15 105v133q0 82 -25.5 106.5t-108.5 26.5z" />
    <glyph glyph-name="Q" unicode="Q" horiz-adv-x="1119" 
d="M1047 0v-196h-318q-193 0 -226 70q-14 31 -16 126q-131 3 -234 67q-111 69 -148 188q-33 107 -33 328v501q0 149 12 218q21 111 88 196q123 155 370 155q140 0 251 -48t165 -122q59 -81 77 -186q11 -65 11 -204v-526q0 -175 -7 -223q-19 -134 -95 -193q-59 -45 -158 -69
q3 -58 30 -73q18 -9 85 -9h146zM625 1203q0 90 -3 107q-11 68 -61 69q-33 1 -50.5 -25t-17.5 -151v-756q0 -126 0 -124q10 -83 65 -83t66 90q1 6 1 129v744z" />
    <glyph glyph-name="R" unicode="R" horiz-adv-x="1103" 
d="M84 1619h298q265 0 311 -6q186 -24 264 -135q66 -94 67 -301q0 -170 -34 -232q-47 -85 -198 -100q186 -45 221 -179q11 -43 11 -239v-427h-391v538q0 128 -21 161q-19 30 -107 31v-730h-421v1619zM505 1342v-360q85 0 108 29q20 26 20 117v89q0 74 -27 99.5t-101 25.5z
" />
    <glyph glyph-name="S" unicode="S" horiz-adv-x="1059" 
d="M976 1129h-391v120q0 64 -6 84q-12 45 -59 46q-76 2 -77 -125q-1 -79 21.5 -121t119.5 -100q256 -152 326 -240q101 -127 101 -379q0 -172 -41 -255t-155.5 -137.5t-270.5 -55.5q-142 -1 -260 50q-142 61 -185 177q-37 100 -37 281v106h391v-197q0 -73 7 -95
q14 -47 68 -48q40 -1 61.5 32.5t21.5 98.5q0 141 -55 204q-23 26 -181 130q-137 90 -171 118q-85 73 -122 163q-33 81 -33 212q0 160 33 241q44 108 168 165q105 48 256 49q131 1 244 -39q143 -50 188 -148q38 -82 38 -273v-64z" />
    <glyph glyph-name="T" unicode="T" horiz-adv-x="944" 
d="M932 1619v-324h-250v-1295h-421v1295h-249v324h920z" />
    <glyph glyph-name="U" unicode="U" 
d="M1041 1619v-1082q0 -171 -6 -216q-14 -113 -77 -196q-119 -158 -383 -159q-124 -1 -233 39q-126 45 -189 134.5t-75 252.5v269v958h421v-1214q0 -90 2 -100q9 -64 56 -65q51 -1 61 74q2 12 2 112v1193h421z" />
    <glyph glyph-name="V" unicode="V" horiz-adv-x="1072" 
d="M1084 1619l-214 -1619h-639l-243 1619h444q74 -644 110 -1131q30 428 69 830l29 301h444z" />
    <glyph glyph-name="W" unicode="W" horiz-adv-x="1668" 
d="M1668 1619l-187 -1619h-526q-71 367 -127 848q-23 -197 -117 -848h-523l-188 1619h409l87 -1110q23 435 116 1110h438q15 -115 46 -534l46 -615q35 587 117 1149h409z" />
    <glyph glyph-name="X" unicode="X" horiz-adv-x="988" 
d="M937 1619l-147 -716l222 -903h-390q-67 233 -128 589q-10 -98 -44 -325l-40 -264h-410l152 903l-152 716h407q12 -77 44 -223q22 -103 43 -218l90 441h353z" />
    <glyph glyph-name="Y" unicode="Y" horiz-adv-x="969" 
d="M981 1619l-307 -1033v-586h-390v586l-296 1033h387q90 -473 102 -637q34 257 117 637h387z" />
    <glyph glyph-name="Z" unicode="Z" horiz-adv-x="813" 
d="M788 1619v-324l-314 -971h314v-324h-776v235l324 1060h-286v324h738z" />
    <glyph glyph-name="bracketleft" unicode="[" horiz-adv-x="578" 
d="M541 1619v-249h-91v-1121h91v-249h-457v1619h457z" />
    <glyph glyph-name="backslash" unicode="\" horiz-adv-x="810" 
d="M12 1650h303l483 -1681h-305z" />
    <glyph glyph-name="bracketright" unicode="]" horiz-adv-x="578" 
d="M36 0v249h91v1121h-91v249h457v-1619h-457z" />
    <glyph glyph-name="asciicircum" unicode="^" horiz-adv-x="990" 
d="M12 820l376 799h223l366 -799h-284l-198 489l-197 -489h-286z" />
    <glyph glyph-name="underscore" unicode="_" horiz-adv-x="1131" 
d="M-12 -154h1155v-102h-1155v102z" />
    <glyph glyph-name="grave" unicode="`" horiz-adv-x="683" 
d="M0 1619h356l176 -271h-203z" />
    <glyph glyph-name="a" unicode="a" horiz-adv-x="1032" 
d="M433 813h-379v89q0 148 29 223q39 96 149 162q107 63 278 64q158 1 267 -50q139 -65 167 -201q21 -102 21 -434v-666h-393v118q-72 -141 -235 -142q-283 -2 -283 320v109q0 156 65 220q43 42 215 109q198 77 213 105q13 25 14 110q1 166 -67 167q-41 1 -51 -26.5
t-10 -137.5v-139zM561 631q-97 -71 -113 -119q-15 -44 -15 -138q0 -84 3 -102q13 -61 64 -61q48 0 59 54q2 12 2 93v273z" />
    <glyph glyph-name="b" unicode="b" horiz-adv-x="1064" 
d="M476 1619v-383q99 114 245 115q168 2 237 -99q36 -53 44 -137q1 -17 1 -147v-598q0 -144 -20 -217t-91 -124.5t-171 -52.5q-141 -1 -245 124l-26 -100h-378v1619h404zM599 950q0 82 -4 101q-11 64 -60 65q-47 1 -57 -65q-2 -10 -2 -101v-572q0 -88 2 -102q11 -65 60 -65
t59 72q2 12 2 108v559z" />
    <glyph glyph-name="c" unicode="c" horiz-adv-x="1013" 
d="M965 826h-381v153q0 64 -5 86q-13 50 -56 51q-44 1 -55 -51q-4 -17 -4 -86v-626q0 -141 71 -142q40 -1 55 36.5t15 140.5v158h360q0 -148 -12 -238.5t-71.5 -170.5t-142.5 -119q-89 -42 -225 -42q-325 0 -413 222q-41 103 -41 300v377q0 160 27 235q37 104 152 173
q111 67 270 68q193 1 320 -102q71 -56 99 -134q35 -97 37 -289z" />
    <glyph glyph-name="d" unicode="d" horiz-adv-x="1064" 
d="M991 1619v-1619h-404v96q-114 -120 -256 -120q-83 0 -153 42q-76 46 -99 122q-19 64 -19 212v621q0 137 10 183q21 91 99 146q69 48 167 49q148 1 251 -108v376h404zM587 993q0 60 -6 80q-12 42 -56 43q-45 1 -56 -43q-5 -17 -5 -80v-650q0 -66 4 -83q11 -48 54 -49
q51 -1 62 64q3 15 3 104v614z" />
    <glyph glyph-name="e" unicode="e" horiz-adv-x="1047" 
d="M987 640h-523v-287q0 -72 4 -90q12 -51 59 -52q55 -1 70 61q7 27 7 107v175h383v-98q0 -116 -13 -174q-18 -81 -75 -156q-113 -149 -364 -150q-125 -1 -226 37q-181 68 -228 243q-21 78 -21 226v387q0 155 36 248q47 121 165 180q107 54 246 54q335 0 435 -236
q45 -107 45 -299v-176zM582 856v97q0 84 -2 98q-10 65 -54 65q-42 0 -52 -26t-10 -137v-97h118z" />
    <glyph glyph-name="f" unicode="f" horiz-adv-x="592" 
d="M587 1619v-205q-124 0 -147 -11.5t-23 -65.5v-42h170v-210h-96v-1085h-404v1085h-83v210h83q0 114 2 134q9 79 51 119q74 71 299 71h148z" />
    <glyph glyph-name="g" unicode="g" horiz-adv-x="1062" 
d="M990 1327v-1022q0 -190 -2 -208q-12 -113 -75 -187q-119 -139 -422 -139q-202 0 -301 60q-126 76 -130 263h392q0 -87 64 -88q54 -1 69 46q7 23 7 94v100q-104 -95 -230 -95q-218 0 -276 159q-26 71 -26 204v482q0 167 53 251q66 103 222 104q152 1 250 -124l29 100h376z
M585 975q0 89 -11 116q-10 24 -46 25q-64 1 -64 -141v-446q0 -75 3 -88q10 -53 54 -54q50 -1 62 69q2 15 2 108v411z" />
    <glyph glyph-name="h" unicode="h" horiz-adv-x="1073" 
d="M476 1619v-364q102 96 242 96q91 0 167 -45q84 -51 104 -134q17 -73 17 -257v-915h-404v934q0 96 -2 110q-11 72 -61 72q-47 0 -59 -67q-4 -22 -4 -102v-947h-404v1619h404z" />
    <glyph glyph-name="i" unicode="i" horiz-adv-x="561" 
d="M488 1619v-211h-416v211h416zM488 1327v-1327h-416v1327h416z" />
    <glyph glyph-name="j" unicode="j" horiz-adv-x="573" 
d="M500 1619v-211h-416v211h416zM500 1327v-1050q0 -174 -1 -189q-9 -120 -53 -176q-77 -98 -296 -98h-156v212q72 0 81 16t9 200v1085h416z" />
    <glyph glyph-name="k" unicode="k" horiz-adv-x="979" 
d="M942 1327l-164 -529l213 -798h-389l-126 578v-578h-404v1619h404v-680l126 388h340z" />
    <glyph glyph-name="l" unicode="l" horiz-adv-x="561" 
d="M488 1619v-1619h-416v1619h416z" />
    <glyph glyph-name="m" unicode="m" horiz-adv-x="1579" 
d="M471 1327l-7 -126q92 149 260 150q161 1 255 -150q101 149 257 150q90 1 160 -43q76 -47 97 -130q19 -74 19 -235v-943h-392v865q0 167 -12 210q-11 40 -53 41t-56 -40q-12 -35 -12 -211v-865h-392v843q0 194 3 156q-8 117 -65 117q-62 0 -67 -71q-2 -27 -2 -125v-920
h-392v1327h399z" />
    <glyph glyph-name="n" unicode="n" horiz-adv-x="1071" 
d="M483 1327l-7 -122q87 145 254 146q92 1 160 -42q74 -46 95 -131q19 -76 19 -248v-930h-404v919q0 131 1 118q-8 79 -60 79q-56 0 -65 -89q0 4 0 -130v-897h-404v1327h411z" />
    <glyph glyph-name="o" unicode="o" horiz-adv-x="1047" 
d="M986 861v-325q0 -156 -10 -220q-19 -118 -85 -199q-114 -140 -364 -141q-269 -2 -372 118q-95 110 -95 398v340q0 166 29 257q41 129 155 199q103 63 266 63q265 0 384 -146q59 -72 79 -162q13 -62 13 -182zM582 961q0 84 -2 95q-10 60 -56 60q-36 0 -48 -26.5
t-12 -128.5v-599q0 -77 3 -93q11 -57 56 -58q44 -1 55 51q4 18 4 87v612z" />
    <glyph glyph-name="p" unicode="p" horiz-adv-x="1063" 
d="M483 1327l-7 -117q107 140 261 141q91 1 162 -51q75 -55 94 -153q9 -44 9 -187v-559q0 -152 -10 -207q-22 -119 -100 -173q-65 -45 -160 -45q-150 0 -256 139v-304h-404v1516h411zM598 941q0 116 1 108q-8 66 -60 67q-51 1 -62 -68q-1 -9 -1 -107v-550q0 -100 2 -111
q10 -69 62 -69q48 0 57 62q1 6 1 99v569z" />
    <glyph glyph-name="q" unicode="q" horiz-adv-x="1061" 
d="M988 1327v-1516h-404v296q-50 -74 -96 -101q-50 -29 -135 -30q-214 -2 -269 179q-24 80 -24 244v585q0 125 11 175q21 90 93 142q67 49 163 50q151 1 257 -137l7 113h397zM584 966q0 149 -62 150q-44 1 -55 -58q-3 -17 -3 -92v-591q0 -88 2 -101q10 -62 59 -63
q45 -1 56 62q3 17 3 96v597z" />
    <glyph glyph-name="r" unicode="r" horiz-adv-x="733" 
d="M476 1327l-16 -174q87 186 255 198v-467q-200 0 -227 -114q-12 -50 -12 -246v-524h-404v1327h404z" />
    <glyph glyph-name="s" unicode="s" horiz-adv-x="964" 
d="M897 903h-358v72q0 90 -10.5 115t-52.5 26q-67 1 -68 -90q-1 -62 7 -86q11 -32 51.5 -65.5t175.5 -99.5q160 -78 214 -143q71 -83 72 -240q1 -142 -31 -220q-41 -101 -152 -152q-94 -43 -237 -44q-129 -1 -234 36q-132 46 -180 142q-41 81 -41 248v64h358v-84
q0 -88 3 -105q12 -65 64 -66q51 -1 66 32q10 21 11 80q1 94 -22 119q-20 22 -235 142q-143 80 -194 147q-62 82 -62 228q0 139 31 211q41 94 153 140q98 40 234 41q254 1 366 -122q49 -55 63 -115q8 -38 8 -134v-77z" />
    <glyph glyph-name="t" unicode="t" horiz-adv-x="624" 
d="M498 1504v-209h109v-210h-109v-710q0 -124 9 -138q15 -23 117 -23v-214h-163q-124 0 -158 4q-91 12 -143 60q-56 52 -66 164q-1 6 -1 183v674h-87v210h87v209h405z" />
    <glyph glyph-name="u" unicode="u" horiz-adv-x="1070" 
d="M997 1327v-1327h-411l7 110q-85 -134 -245 -134q-177 0 -240 117q-35 65 -41 166q-1 14 -1 173v895h404v-903q0 -156 -3 -128q8 -84 64 -85q57 -1 65 90q-3 -32 -3 133v893h404z" />
    <glyph glyph-name="v" unicode="v" horiz-adv-x="895" 
d="M907 1327l-189 -1327h-527l-203 1327h361l113 -968q10 84 44 520q20 258 40 448h361z" />
    <glyph glyph-name="w" unicode="w" horiz-adv-x="1371" 
d="M1377 1327l-161 -1327h-439q-31 209 -83 640q-12 -143 -45 -352l-45 -288h-439l-171 1327h348q3 -59 88 -759q6 72 90 759h335l82 -759q18 340 92 759h348z" />
    <glyph glyph-name="x" unicode="x" horiz-adv-x="888" 
d="M872 1327l-161 -634l195 -693h-393q-55 253 -88 451q-39 -234 -87 -451h-338l174 693l-174 634h338q81 -406 87 -461q57 342 88 461h359z" />
    <glyph glyph-name="y" unicode="y" horiz-adv-x="918" 
d="M918 1327l-116 -960q-26 -214 -29 -232q-27 -150 -78 -216q-41 -53 -119.5 -79t-244.5 -26h-245v212q82 0 90 1q58 9 58 51q0 13 -25 139l-221 1110h367l132 -895l64 895h367z" />
    <glyph glyph-name="z" unicode="z" horiz-adv-x="719" 
d="M701 1327v-294l-298 -767h298v-266h-689v278l305 783h-274v266h658z" />
    <glyph glyph-name="braceleft" unicode="{" horiz-adv-x="757" 
d="M36 538v240q143 0 190 111q29 69 29 239q0 156 5 202q13 123 68 185q91 104 339 104h53v-239q-145 0 -173.5 -29.5t-30.5 -117.5l-6 -229q-10 -139 -54 -221q-34 -65 -128 -125q97 -59 137 -146q33 -72 40 -199l15 -291q13 -59 79 -76q30 -8 120 -9v-240h-52
q-300 0 -373 156q-39 83 -39 268q0 163 -3 191q-11 109 -65 174q-39 48 -151 52z" />
    <glyph glyph-name="bar" unicode="|" horiz-adv-x="555" 
d="M169 1619h217v-1884h-217v1884z" />
    <glyph glyph-name="braceright" unicode="}" horiz-adv-x="757" 
d="M720 538q-142 0 -189 -111q-30 -70 -30 -238q0 -156 -5 -202q-13 -124 -67 -186q-90 -104 -339 -104h-53v240q118 0 151 18q50 27 53 129l6 238q12 143 62 226q38 63 119 110q-138 90 -166 227q-11 57 -13 227q-2 155 -19 207q-20 61 -194 61v239h53q300 0 373 -156
q39 -83 39 -268q0 -166 3 -193q11 -110 67 -175q38 -45 149 -49v-240z" />
    <glyph glyph-name="asciitilde" unicode="~" horiz-adv-x="1075" 
d="M1018 787q-157 -130 -284 -131q-85 -1 -256 82q-96 47 -142 47q-107 1 -279 -162v277q146 127 289 128q84 1 232 -70q119 -57 169 -57q47 0 98 26q46 24 173 135v-275z" />
    <glyph glyph-name="nonbreakingspace" unicode="&#xa0;" horiz-adv-x="361" 
 />
    <glyph glyph-name="cent" unicode="&#xa2;" horiz-adv-x="991" 
d="M877 1273h-319v25q0 98 -83 100q-29 1 -44.5 -14t-15.5 -45q0 -59 192 -198q179 -130 223 -172q125 -121 125 -240q0 -183 -217 -285q171 -177 172 -323q1 -160 -132 -260q-120 -90 -285 -90q-180 0 -278.5 97t-101.5 278h320q0 -129 79 -129q62 0 63 66q1 61 -139 161
q-203 146 -251 189q-148 137 -149 261q-1 164 216 289q-169 151 -169 320q0 164 126 261q114 88 283 89q160 1 272 -83t113 -297zM382 869q-34 -36 -35 -75q-1 -38 62 -90l92 -66q78 -56 108 -80q34 31 35 75q1 29 -35.5 65t-139.5 108z" />
    <glyph glyph-name="sterling" unicode="&#xa3;" horiz-adv-x="414" 
d="M377 1054v-329h-305v329h305zM377 330v-330h-305v330h305z" />
    <glyph glyph-name="currency" unicode="&#xa4;" horiz-adv-x="642" 
d="M36 1619h127q315 0 368 -128q26 -63 26 -268v-827q0 -168 -10 -212q-24 -113 -125 -152q-83 -32 -259 -32h-127v211q72 0 83 2q51 7 63 43q10 30 10 139v829q0 119 -12 144.5t-37 32.5q-20 5 -107 7v211z" />
    <glyph glyph-name="yen" unicode="&#xa5;" horiz-adv-x="642" 
d="M605 1619v-211q-72 0 -80 -1q-50 -7 -64 -39q-11 -25 -11 -144v-829q0 -88 1 -96q7 -66 41 -79q24 -9 113 -9v-211h-127q-313 0 -368 128q-26 61 -26 268v827q0 169 10 213q25 112 127 151q84 32 257 32h127z" />
    <glyph glyph-name="brokenbar" unicode="&#xa6;" horiz-adv-x="760" 
d="M639 1238l85 -543l-85 -571h-237l85 571l-85 543h237zM273 1238l84 -543l-84 -571h-237l84 571l-84 543h237z" />
    <glyph glyph-name="section" unicode="&#xa7;" horiz-adv-x="760" 
d="M120 1238h237l-84 -543l84 -571h-237l-84 571zM487 1238h237l-85 -543l85 -571h-237l-85 571z" />
    <glyph glyph-name="dieresis" unicode="&#xa8;" horiz-adv-x="1024" 
d="M-12 788h1048v-249h-1048v249z" />
    <glyph glyph-name="copyright" unicode="&#xa9;" horiz-adv-x="378" 
d="M341 330v-330h-305v330h305z" />
    <glyph glyph-name="ordfeminine" unicode="&#xaa;" horiz-adv-x="683" 
d="M0 1619h356l176 -271h-203z" />
    <glyph glyph-name="guillemotleft" unicode="&#xab;" horiz-adv-x="344" 
d="M307 317v-145q0 -217 -121 -311q-64 -50 -150 -68v116q59 32 68 91h-68v317h271z" />
    <glyph glyph-name="logicalnot" unicode="&#xac;" horiz-adv-x="603" 
d="M567 803v-279h-531v279h531z" />
    <glyph glyph-name="minus" unicode="&#xad;" horiz-adv-x="770" 
d="M763 647q-186 -125 -395 -125q-132 0 -226 66q-100 69 -134 194l266 70q12 -52 62.5 -91t107.5 -39q111 0 224 74z" />
    <glyph glyph-name="minus" unicode="&#x2212;" horiz-adv-x="770" 
d="M763 647q-186 -125 -395 -125q-132 0 -226 66q-100 69 -134 194l266 70q12 -52 62.5 -91t107.5 -39q111 0 224 74z" />
    <glyph glyph-name="registered" unicode="&#xae;" horiz-adv-x="2099" 
d="M421 330v-330h-305v330h305zM1201 330v-330h-305v330h305zM1981 330v-330h-305v330h305z" />
    <glyph glyph-name="macron" unicode="&#xaf;" horiz-adv-x="683" 
d="M641 1634q19 -66 19 -119q0 -168 -218 -241l-75 -25q-140 -47 -140 -128q0 -26 10 -73l-187 -22q-11 58 -11 106q0 201 217 279l61 22q140 50 140 132q0 25 -12 54z" />
    <glyph glyph-name="macron" unicode="&#x2c9;" horiz-adv-x="683" 
d="M641 1634q19 -66 19 -119q0 -168 -218 -241l-75 -25q-140 -47 -140 -128q0 -26 10 -73l-187 -22q-11 58 -11 106q0 201 217 279l61 22q140 50 140 132q0 25 -12 54z" />
    <glyph glyph-name="degree" unicode="&#xb0;" horiz-adv-x="683" 
d="M683 1619l-329 -271h-203l176 271h356z" />
    <glyph glyph-name="plusminus" unicode="&#xb1;" horiz-adv-x="544" 
d="M502 1577q67 -80 67 -171q0 -47 -18 -112l-166 -6q14 64 -26 113q-21 25 -59 25q-37 0 -67 -25q-64 -53 -66 -156q-2 -90 60 -208l-164 -87q-82 166 -82 299q0 15 1 29q20 200 156 306q90 70 187 70q112 0 177 -77z" />
    <glyph glyph-name="twosuperior" unicode="&#xb2;" horiz-adv-x="1153" 
d="M1176 258l-153 -288l-153 78q-121 -82 -295 -82q-222 0 -353 102q-115 90 -134 233q-10 77 -10 230v1088h421v-1284q0 -95 100 -95q40 0 71 28t31 72q0 92 -81 112v1167h421v-1082q0 -148 -7 -217z" />
    <glyph glyph-name="threesuperior" unicode="&#xb3;" horiz-adv-x="1080" 
d="M1065 201l-195 -222l-144 108q-123 -112 -344 -112q-128 0 -211 71q-105 89 -105 271v1010h404v-1039q0 -77 79 -77q56 0 107 58q61 70 61 184q0 239 -124 239v637h103q321 0 321 -432v-174q0 -235 -96 -414z" />
    <glyph glyph-name="acute" unicode="&#xb4;" 
d="M1061 291h-562v-291h-421v1088q0 153 10 230q19 143 134 233q131 102 353 102q204 0 329 -102q105 -85 125 -210q12 -75 12 -259v-282h-421v493q0 86 -63 86q-58 0 -58 -85v-679h562v-324z" />
    <glyph glyph-name="mu1" unicode="&#xb5;" horiz-adv-x="1071" 
d="M1041 290h-565v-290h-404v1327h411l-7 -122q88 147 262 147q266 0 266 -342v-350h-404v389q0 67 -59 67q-65 0 -65 -69v-491h565v-266z" />
    <glyph glyph-name="mu1" unicode="&#x3bc;" horiz-adv-x="1071" 
d="M1041 290h-565v-290h-404v1327h411l-7 -122q88 147 262 147q266 0 266 -342v-350h-404v389q0 67 -59 67q-65 0 -65 -69v-491h565v-266z" />
    <glyph glyph-name="paragraph" unicode="&#xb6;" horiz-adv-x="1162" 
d="M1181 290h-142v-290h-421v291h-122q-197 0 -310 135q-110 131 -110 348v314q0 153 10 230q19 143 134 233q131 102 353 102q204 0 329 -102q105 -85 125 -210q13 -82 13 -259v-468h141v-324zM618 615v678q0 86 -63 86q-58 0 -58 -85v-590q0 -89 121 -89z" />
    <glyph glyph-name="periodcentered" unicode="&#xb7;" horiz-adv-x="1111" 
d="M1109 290h-121v-290h-404v296q-52 -76 -99 -103t-132 -28q-101 -1 -172.5 48t-96.5 131q-24 79 -24 244v396q0 135 18.5 202.5t85.5 114.5q71 49 163 50q150 1 257 -137l7 113h397v-771h121v-266zM584 488v558q0 69 -62 70q-58 1 -58 -70v-562q0 -83 61 -84q59 -1 59 88z
" />
    <glyph glyph-name="periodcentered" unicode="&#x2219;" horiz-adv-x="1111" 
d="M1109 290h-121v-290h-404v296q-52 -76 -99 -103t-132 -28q-101 -1 -172.5 48t-96.5 131q-24 79 -24 244v396q0 135 18.5 202.5t85.5 114.5q71 49 163 50q150 1 257 -137l7 113h397v-771h121v-266zM584 488v558q0 69 -62 70q-58 1 -58 -70v-562q0 -83 61 -84q59 -1 59 88z
" />
    <glyph glyph-name="cedilla" unicode="&#xb8;" horiz-adv-x="1181" 
d="M1181 290h-142v-290h-421v1293q0 86 -63 86q-58 0 -58 -85v-680h-421v474q0 153 10 230q19 143 134 233q131 102 353 102q204 0 329 -102q105 -85 125 -210q13 -82 13 -259v-468h141v-324z" />
    <glyph glyph-name="onesuperior" unicode="&#xb9;" horiz-adv-x="1119" 
d="M1126 290h-122v-290h-404v1049q0 67 -59 67q-65 0 -65 -69v-757h-404v1037h411l-7 -122q88 147 262 147q265 0 266 -342l1 -454h121v-266z" />
    <glyph glyph-name="ordmasculine" unicode="&#xba;" 
d="M1061 1004h-562v-679q0 -85 58 -85q63 0 63 86v493h421v-282q0 -184 -12 -259q-20 -125 -125 -210q-125 -102 -329 -102q-222 0 -353 102q-115 90 -134 233q-10 77 -10 230v1088h421v-291h562v-324z" />
    <glyph glyph-name="guillemotright" unicode="&#xbb;" horiz-adv-x="1071" 
d="M1041 771h-565l1 -493q0 -67 59 -67q64 0 64 69v387h404v-667h-411l7 122q-88 -147 -261 -147q-266 0 -266 342l-1 1010h404v-290h565v-266z" />
    <glyph glyph-name="onequarter" unicode="&#xbc;" 
d="M1051 0h-976v460h421v-130h48q75 0 75 140l-1 823q0 86 -63 86q-58 0 -58 -85v-450h-421v244q0 153 10 230q19 143 134 233q131 102 353 102q204 0 329 -102q105 -85 125 -210q13 -82 13 -259v-452q0 -110 -55 -195q-67 -103 -185 -111h251v-324z" />
    <glyph glyph-name="onehalf" unicode="&#xbd;" horiz-adv-x="1071" 
d="M1004 626q0 -158 -59 -259q-49 -82 -117 -101h145v-266h-875v390h401v-114h36q65 0 65 70v695q0 75 -64 75q-60 0 -60 -75v-472h-404v323q0 209 102 326q116 133 350 133q480 0 480 -430v-295z" />
    <glyph glyph-name="threequarters" unicode="&#xbe;" horiz-adv-x="957" 
d="M956 1004h-452l1 -680h256v-324h-677v1619h421l-1 -291h452v-324z" />
    <glyph glyph-name="questiondown" unicode="&#xbf;" horiz-adv-x="748" 
d="M759 771h-280v-505h194v-266h-598v1327h404v-290h280v-266z" />
    <glyph glyph-name="Agrave" unicode="&#xc0;" 
d="M1072 0h-993v1082q0 184 12 259q20 125 125 210q125 102 329 102q222 0 353 -102q115 -90 134 -233q10 -77 10 -230v-474h-421v680q0 85 -58 85q-63 0 -63 -86v-970h572v-323z" />
    <glyph glyph-name="Aacute" unicode="&#xc1;" horiz-adv-x="1071" 
d="M1041 0h-969v1327h411l-7 -122q88 147 262 147q266 0 266 -342v-640h-404v679q0 67 -59 67q-65 0 -65 -69v-781h565v-266z" />
    <glyph glyph-name="Acircumflex" unicode="&#xc2;" horiz-adv-x="1675" 
d="M1675 660h-113v-250q0 -217 -125 -328q-120 -107 -341 -107q-496 0 -496 422v230q0 133 108 236q123 118 330 120l104 1v143q0 91 -83 165q-98 87 -256 87q-149 0 -234 -92q-69 -74 -69 -164v-1123h-421v1182q0 188 185 323q204 148 541 148q336 0 542 -118
q215 -125 215 -341v-210h113v-324zM1142 290v363q-122 0 -122 -102v-263q0 -32 18.5 -56t47.5 -22q56 5 56 80z" />
    <glyph glyph-name="Atilde" unicode="&#xc3;" horiz-adv-x="1592" 
d="M1594 760h-113v-350q0 -435 -450 -435q-481 0 -481 422v270q0 115 100 223q123 131 323 134l65 1q-23 50 -178 50h-287q-97 0 -97 -58v-1017h-404v1327h411l-7 -122q34 54 118 92q78 34 151 34h281q176 0 303 -105q112 -93 122 -201l143 1v-266zM1078 270v483
q-123 0 -123 -102v-363q0 -32 18.5 -56t47.5 -22q57 5 57 60z" />
    <glyph glyph-name="Adieresis" unicode="&#xc4;" horiz-adv-x="1180" 
d="M1181 1005h-141v-468q0 -177 -13 -259q-20 -125 -125 -210q-125 -102 -329 -102q-222 0 -353 102q-115 90 -134 233q-10 77 -10 230v314q0 217 110 348q113 135 310 135h122v291h421v-290h142v-324zM618 326v678q-121 0 -121 -89v-590q0 -85 58 -85q63 0 63 86z" />
    <glyph glyph-name="Aring" unicode="&#xc5;" horiz-adv-x="1109" 
d="M1109 771h-121l-1 -339q0 -453 -477 -453q-168 0 -291 92q-159 118 -159 352v196q0 222 151 332q112 82 257 81l116 -1v296h404v-290h121v-266zM584 281v411q0 89 -59 88q-61 -1 -61 -84v-415q0 -71 58 -70q62 1 62 70z" />
    <glyph glyph-name="AE" unicode="&#xc6;" 
d="M1042 387h-421v607q0 85 -58 85q-63 0 -63 -86v-993h-421v1619h421v-273q33 10 66 10q213 0 338 -104q109 -90 128 -234q10 -77 10 -230v-401z" />
    <glyph glyph-name="Ccedilla" unicode="&#xc7;" horiz-adv-x="1071" 
d="M1004 290h-404v469q0 67 -59 67q-65 0 -65 -69v-757h-404v1327h404v-412q88 147 262 147q266 0 266 -342v-430z" />
    <glyph glyph-name="Egrave" unicode="&#xc8;" horiz-adv-x="779" 
d="M761 0h-677v1619h421v-1295h256v-324z" />
    <glyph glyph-name="Eacute" unicode="&#xc9;" horiz-adv-x="600" 
d="M600 -190h-528v1517h404v-1247h124v-270z" />
    <glyph glyph-name="Ecircumflex" unicode="&#xca;" horiz-adv-x="1670" 
d="M1584 537q0 -184 -12 -259q-20 -125 -125 -210q-125 -102 -329 -102q-222 0 -353 102q-115 90 -134 233q-10 77 -10 230v548h-121v-1079h-421v1619h421v-291h541l1 -1003q0 -85 58 -85q63 0 63 86v1002h421v-791z" />
    <glyph glyph-name="Edieresis" unicode="&#xcb;" horiz-adv-x="1580" 
d="M1532 383q0 -212 -147 -330q-131 -105 -328 -105q-199 0 -324 108q-133 114 -133 314v389q0 67 -59 67q-65 0 -65 -69v-757h-404v1327h404v-412q88 147 262 147q265 0 266 -342l1 -469q0 -18 16 -40q19 -26 43 -27q25 -1 46 25q18 24 18 44v787h404v-657z" />
    <glyph glyph-name="Igrave" unicode="&#xcc;" horiz-adv-x="1119" 
d="M1072 1296l-248 10q119 -31 170.5 -121.5t51.5 -256.5v-447q0 -515 -487 -515t-487 515v447q0 333 212 378l-240 -10v323h1028v-323zM625 319v844q0 85 -64 86q-30 1 -49 -25t-19 -61v-846q0 -77 65 -77q67 0 67 79z" />
    <glyph glyph-name="Iacute" unicode="&#xcd;" horiz-adv-x="1071" 
d="M1041 1061h-284q85 0 154 -67q93 -89 93 -263v-275q0 -249 -100 -360q-107 -120 -359 -120q-257 0 -368 117q-105 112 -105 359v250q0 190 97 288q71 72 155 72l-288 -1v266h1005v-266zM601 286v665q0 75 -59 75q-66 0 -66 -75v-666q0 -73 65 -74q60 -1 60 75z" />
    <glyph glyph-name="Icircumflex" unicode="&#xce;" 
d="M1041 0h-421v273q-33 -10 -66 -10q-213 0 -338 104q-109 90 -128 234q-10 77 -10 230v788h421v-994q0 -85 58 -85q63 0 63 86v702h421v-1328z" />
    <glyph glyph-name="Idieresis" unicode="&#xcf;" horiz-adv-x="1071" 
d="M997 0h-403l-1 322q-88 -147 -261 -147q-266 0 -266 342v810h404v-849q0 -67 59 -67q64 0 64 69v557h404v-1037z" />
    <glyph glyph-name="Eth" unicode="&#xd0;" horiz-adv-x="925" 
d="M888 0h-876v235l348 1061l-198 67l111 305l572 -198l-371 -1146h414v-324z" />
    <glyph glyph-name="Ntilde" unicode="&#xd1;" horiz-adv-x="886" 
d="M852 1336l-28 -283l-41 6q-68 10 -114 -108l-215 -549q-26 -67 -31 -133l424 -37l-23 -268l-823 72l15 168q10 109 41 189l273 699q48 122 169 193q114 66 240 58z" />
    <glyph glyph-name="Ograve" unicode="&#xd2;" 
d="M1089 216l-151 -249l-161 90q-103 -87 -340 -87q-129 0 -231 69q-128 86 -128 243q0 146 121 217q81 47 170 47q96 0 234 -69q16 28 16 123l-1 693q0 86 -63 86q-58 0 -58 -85v-450h-421v244q0 153 10 230q19 143 134 233q131 102 353 102q204 0 329 -102
q105 -85 125 -210q13 -82 13 -259v-472q0 -209 -77 -325zM480 231q-63 54 -111 54q-51 0 -51 -33q0 -53 68 -53q76 0 94 32z" />
    <glyph glyph-name="Oacute" unicode="&#xd3;" horiz-adv-x="1050" 
d="M1012 198l-162 -214l-136 86q-115 -100 -307 -100q-149 0 -242 65q-97 67 -97 184q0 122 94 198q82 67 186 67q97 0 160 -28l61 -27q9 85 9 107v505q0 75 -64 75q-60 0 -60 -75v-472h-404v323q0 209 102 326q116 133 350 133q480 0 480 -430v-255q0 -238 -96 -386z
M500 178q-43 35 -84 35q-48 0 -48 -29q0 -40 56 -40t76 34z" />
    <glyph glyph-name="Ocircumflex" unicode="&#xd4;" horiz-adv-x="1181" 
d="M1181 0h-563v1293q0 86 -63 86q-58 0 -58 -85v-680h-421v474q0 153 10 230q19 143 134 233q131 102 353 102q204 0 329 -102q105 -85 125 -210q13 -82 13 -259v-758h141v-324z" />
    <glyph glyph-name="Otilde" unicode="&#xd5;" horiz-adv-x="1118" 
d="M1126 0h-526v1049q0 67 -59 67q-65 0 -65 -69v-757h-404v1037h411l-7 -122q88 147 262 147q266 0 266 -342l1 -744h121v-266z" />
    <glyph glyph-name="Odieresis" unicode="&#xd6;" horiz-adv-x="1056" 
d="M661 267l-113 234q-50 -146 -57 -234h170zM915 1619l-229 -704l240 -444q67 -123 86 -197q14 -52 14 -134v-140h-998v96q0 124 55 305l171 562l-252 480l279 147l129 -240l80 269h425z" />
    <glyph glyph-name="multiply" unicode="&#xd7;" horiz-adv-x="986" 
d="M986 0h-948v96q0 62 13 156q15 114 36 149l165 417l-250 370l252 174l141 -213l21 42q80 160 326 160h128v-292h-73q-56 0 -90 -84l-63 -156l219 -327q123 -184 123 -352v-140zM641 267l-126 201q-57 -116 -64 -201h190z" />
    <glyph glyph-name="Oslash" unicode="&#xd8;" horiz-adv-x="1182" 
d="M1181 1295h-140v-758q0 -184 -12 -259q-20 -125 -125 -210q-125 -102 -329 -102q-222 0 -353 102q-115 90 -134 233q-10 77 -10 230v1088h421v-1294q0 -85 58 -85q63 0 63 86v1293h561v-324z" />
    <glyph glyph-name="Ugrave" unicode="&#xd9;" horiz-adv-x="1118" 
d="M1118 1062h-121v-1062h-411l7 122q-88 -147 -261 -147q-266 0 -266 342v720h404v-759q0 -67 59 -67q64 0 64 69v1047l525 1v-266z" />
    <glyph glyph-name="Uacute" unicode="&#xda;" horiz-adv-x="1098" 
d="M1046 1108q0 -104 -68 -168q-64 -61 -164 -66q230 -34 230 -344v-100q0 -212 -126 -335q-129 -128 -360 -128q-212 0 -341 112q-141 122 -141 344v86h417l-1 -181q0 -47 10 -64q13 -21 56 -21q65 0 65 85v231q0 101 -118 101h-429v324h427q58 0 83 15q38 22 38 85v205
q0 91 -63 91q-71 0 -70 -87l1 -135h-417v69q0 221 158 333q130 92 335 92q184 0 314 -90q164 -113 164 -334v-120z" />
    <glyph glyph-name="Ucircumflex" unicode="&#xdb;" horiz-adv-x="628" 
d="M544 277q0 -174 -1 -189q-9 -120 -53 -176q-77 -98 -296 -98h-156v212q72 0 81 16t9 200v1085h416v-1050z" />
    <glyph glyph-name="Udieresis" unicode="&#xdc;" horiz-adv-x="1181" 
d="M1105 531q0 -153 -10 -230q-19 -143 -134 -233q-131 -102 -353 -102q-204 0 -329 102q-105 85 -125 210q-13 82 -13 259v758h-141v324h563v-1293q0 -86 63 -86q58 0 58 85v680h421v-474z" />
    <glyph glyph-name="Yacute" unicode="&#xdd;" horiz-adv-x="1092" 
d="M1059 0h-411l7 122q-88 -147 -261 -147q-266 0 -266 342l1 745h-121v266l524 -1v-1049q0 -67 59 -67q64 0 64 69v757h404v-1037z" />
    <glyph glyph-name="Thorn" unicode="&#xde;" 
d="M1044 531q0 -153 -10 -230q-19 -143 -134 -233q-131 -102 -353 -102q-204 0 -329 102q-105 85 -125 210q-13 82 -13 259v432q0 128 88 235q98 120 244 115l-174 96l180 271l596 -353l-167 -277l-255 156q-16 10 -31 10q-28 0 -44.5 -28.5t-16.5 -64.5v-803q0 -86 65 -86
q58 0 58 85v450h421v-244z" />
    <glyph glyph-name="germandbls" unicode="&#xdf;" horiz-adv-x="1040" 
d="M984 424q0 -209 -102 -326q-116 -133 -350 -133q-480 0 -480 430v255q0 153 82 276q81 120 178 120q10 0 21 -2l-147 72l153 255l585 -286l-144 -261l-226 109q-16 8 -34 8q-64 0 -64 -91v-575q0 -75 64 -75q60 0 60 75v472h404v-323z" />
    <glyph glyph-name="agrave" unicode="&#xe0;" 
d="M1042 0h-421v1294q0 85 -58 85q-63 0 -63 -86v-1293h-421v1082q0 184 12 259q20 125 125 210q125 102 329 102q222 0 353 -102q115 -90 134 -233q10 -77 10 -230v-1088z" />
    <glyph glyph-name="aacute" unicode="&#xe1;" horiz-adv-x="1071" 
d="M1004 0h-404v1049q0 67 -59 67q-65 0 -65 -69v-1047h-404v1327h411l-7 -122q88 147 262 147q266 0 266 -342v-1010z" />
    <glyph glyph-name="acircumflex" unicode="&#xe2;" horiz-adv-x="1108" 
d="M1034 650q0 -128 -88 -235q-98 -120 -244 -115l174 -96l-180 -271l-596 353l167 277l255 -156q16 -10 31 -10q28 0 45 30q16 27 16 63v803q0 86 -65 86q-58 0 -58 -85v-450h-421v244q0 153 10 230q19 143 134 233q131 102 353 102q204 0 329 -102q105 -85 125 -210
q13 -82 13 -259v-432z" />
    <glyph glyph-name="atilde" unicode="&#xe3;" horiz-adv-x="1024" 
d="M972 666q0 -152 -82 -271q-80 -115 -177 -115q-11 0 -22 2l147 -72l-153 -255l-585 286l144 261l226 -109q16 -8 34 -8q64 0 64 91v565q0 75 -64 75q-60 0 -60 -75v-472h-404v323q0 209 102 326q116 133 350 133q480 0 480 -430v-255z" />
    <glyph glyph-name="adieresis" unicode="&#xe4;" horiz-adv-x="1648" 
d="M1566 0h-421v1272q0 63 -33 87q-29 20 -99 20v-909h-421v908q-132 0 -132 -106v-431h-421v316q0 234 222 369q209 126 540 126q328 0 531 -114q234 -130 234 -381v-1157z" />
    <glyph glyph-name="aring" unicode="&#xe5;" horiz-adv-x="1574" 
d="M1499 0h-402v1035q0 81 -59 81q-65 0 -65 -81v-745h-404v743q0 83 -59 83q-66 0 -66 -86v-510h-404v807h411l-7 -126q92 149 248 150q173 2 267 -150q101 149 245 150q99 1 174 -49q72 -48 92 -124q29 -112 29 -235v-943z" />
    <glyph glyph-name="ae" unicode="&#xe6;" 
d="M1051 0h-976v460h421v-130h59q65 0 65 100v75q0 229 -544 229v354q0 153 10 230q19 143 134 233q131 102 353 102q204 0 329 -102q105 -85 125 -210q13 -82 13 -259v-402q0 -135 -55 -233q-66 -115 -185 -123h251v-324zM621 921l-1 372q0 86 -65 86q-58 0 -58 -85v-320
q65 -14 72 -16q36 -12 52 -37z" />
    <glyph glyph-name="ccedilla" unicode="&#xe7;" horiz-adv-x="1071" 
d="M1004 626q0 -158 -59 -259q-49 -82 -117 -101h145v-266h-875v390h401v-114h36q65 0 65 70v71q0 152 -124 152h-404v323q0 209 102 326q116 133 350 133q480 0 480 -430v-295zM600 754v287q0 75 -64 75q-60 0 -60 -75v-217q95 -9 124 -70z" />
    <glyph glyph-name="egrave" unicode="&#xe8;" horiz-adv-x="1182" 
d="M1182 660h-140v-660h-421v1294q0 85 -58 85q-63 0 -63 -86v-1293h-421v1082q0 184 12 259q20 125 125 210q125 102 329 102q222 0 353 -102q115 -90 134 -233q10 -77 10 -230v-104h140v-324z" />
    <glyph glyph-name="eacute" unicode="&#xe9;" horiz-adv-x="1100" 
d="M1101 0h-551v265q29 0 51 48q29 61 29 172v534q0 97 -89 97q-65 0 -65 -69v-1047h-404v1327h411l-7 -122q88 147 262 147q296 0 296 -372v-440q0 -126 -45 -195q-24 -38 -84 -79h196v-266z" />
    <glyph glyph-name="ecircumflex" unicode="&#xea;" 
d="M1041 537q0 -184 -12 -259q-20 -125 -125 -210q-125 -102 -329 -102q-222 0 -353 102q-115 90 -134 233q-10 77 -10 230v1088h421v-1294q0 -85 58 -85q63 0 63 86v1293h421v-1082z" />
    <glyph glyph-name="edieresis" unicode="&#xeb;" horiz-adv-x="1071" 
d="M997 0h-411l7 122q-88 -147 -261 -147q-266 0 -266 342v1010h404v-1049q0 -67 59 -67q64 0 64 69v1047h404v-1327z" />
    <glyph glyph-name="igrave" unicode="&#xec;" horiz-adv-x="1182" 
d="M1181 0h-560l-1 273q-33 -10 -66 -10q-213 0 -338 104q-109 90 -128 234q-10 77 -10 230v497h421v-703q0 -85 58 -85q63 0 63 86v993h421l-1 -1295h141v-324z" />
    <glyph glyph-name="iacute" unicode="&#xed;" horiz-adv-x="1109" 
d="M1118 0h-526v412q-88 -147 -262 -147q-266 0 -266 342v430h404v-469q0 -67 59 -67q65 0 65 69v757h404l1 -1061h121v-266z" />
    <glyph glyph-name="icircumflex" unicode="&#xee;" horiz-adv-x="1059" 
d="M1011 394q0 -426 -467 -428q-502 -2 -502 508v106h391v-197q0 -141 95 -143q83 -1 83 131q0 143 -39 187q-28 31 -196 147q-178 123 -209 151q-118 108 -118 362q0 435 457 435q490 0 490 -400v-124h-391v120q0 128 -85 130q-76 2 -77 -125q-1 -85 19 -120
q26 -44 122 -101q281 -167 354 -274.5t73 -364.5z" />
    <glyph glyph-name="idieresis" unicode="&#xef;" horiz-adv-x="964" 
d="M928 392q1 -142 -31 -220q-41 -101 -152 -152q-94 -43 -237 -44q-129 -1 -234 36q-132 46 -180 142q-41 81 -41 248v64h358v-84q0 -88 3 -105q12 -65 64 -66q51 -1 66 32q10 21 11 80q1 94 -22 119q-20 22 -235 142q-143 80 -194 147q-62 82 -62 228q0 139 31 211
q41 94 153 140q98 40 234 41q254 1 366 -122q49 -55 63 -115q8 -38 8 -134v-77h-358v72q0 90 -10.5 115t-52.5 26q-67 1 -68 -90q-1 -62 7 -86q11 -32 51.5 -65.5t175.5 -99.5q160 -78 214 -143q71 -83 72 -240z" />
    <glyph glyph-name="eth" unicode="&#xf0;" 
d="M1042 614h-421v680q0 85 -58 85q-63 0 -63 -86v-1293h-421v1082q0 184 12 259q20 125 125 210q125 102 329 102q222 0 353 -102q115 -90 134 -233q10 -77 10 -230v-474z" />
    <glyph glyph-name="ntilde" unicode="&#xf1;" horiz-adv-x="1071" 
d="M1004 290h-404v759q0 67 -59 67q-65 0 -65 -69v-1047h-404v1327h411l-7 -122q88 147 262 147q266 0 266 -342v-720z" />
    <glyph glyph-name="ograve" unicode="&#xf2;" horiz-adv-x="1119" 
d="M783 1437q0 -94 -66.5 -161t-161.5 -67q-94 0 -161 67t-67 161q0 95 67 161.5t161 66.5q95 0 161.5 -66.5t66.5 -161.5zM1046 481q0 -515 -487 -515t-487 505v38h420l1 -192q0 -77 65 -77q67 0 67 79v530q0 85 -64 86q-30 1 -49 -25t-19 -61l-1 -180h-420v45
q0 495 487 495t487 -495v-233z" />
    <glyph glyph-name="oacute" unicode="&#xf3;" horiz-adv-x="1029" 
d="M972 456q0 -249 -100 -360q-107 -120 -359 -120q-254 0 -368 112q-105 104 -105 324v46h405l-1 -173q0 -73 65 -74q60 -1 60 75v555q0 75 -59 75q-66 0 -66 -75l1 -193h-405v74q0 318 266 397v211h403v-210q148 -36 210 -142q53 -91 53 -257v-265z" />
    <glyph glyph-name="ocircumflex" unicode="&#xf4;" horiz-adv-x="779" 
d="M761 660h-249v-660h-428v1619h421v-635h256v-324z" />
    <glyph glyph-name="otilde" unicode="&#xf5;" horiz-adv-x="728" 
d="M726 771h-250v-771h-404v1327h404v-290h250v-266z" />
    <glyph glyph-name="odieresis" unicode="&#xf6;" horiz-adv-x="1642" 
d="M1599 601q0 -245 -116 -377q-119 -137 -347 -137q-43 0 -90 5v-92h-418v88q-40 -3 -77 -3q-479 0 -479 516v423q0 254 123 374q134 131 430 121v100h420v-99q25 1 49 1q505 0 505 -497v-423zM1178 459v680q0 63 -33 87q-29 20 -99 20v-898q132 0 132 111zM625 357v888
q-132 0 -132 -106v-672q0 -110 132 -110z" />
    <glyph glyph-name="divide" unicode="&#xf7;" horiz-adv-x="1499" 
d="M1481 616q0 -194 -149.5 -326.5t-373.5 -132.5v-347h-404v344q-273 0 -411 132q-123 119 -123 326v110q0 166 145 302q157 148 384 148v156h401v-151q249 0 399 -151q132 -132 132 -305v-105zM1078 403v514q0 24 -14 47q-17 29 -43 32h-68v-685h68q57 8 57 92zM549 309
v686l-59 -1q-66 -8 -66 -85v-514q0 -78 66 -86h59z" />
    <glyph glyph-name="oslash" unicode="&#xf8;" horiz-adv-x="1184" 
d="M1115 119h-555v-119h-421v120h-137v324h136v638q0 177 13 259q20 125 125 210q125 102 329 102q233 0 367 -112q130 -109 130 -293v-155q0 -207 -117 -336q-112 -122 -303 -147q-75 -10 -122 7v-173h555v-325zM681 1023v271q0 85 -58 85q-63 0 -63 -86v-269q0 -94 55 -94
q66 0 66 93z" />
    <glyph glyph-name="ugrave" unicode="&#xf9;" horiz-adv-x="1086" 
d="M1061 0h-565v-190h-404v190h-92v266l92 -1v1062h411l-7 -117q107 140 261 141q90 1 160 -48t88 -119q17 -65 17 -224v-109q0 -181 -22 -257t-88 -122t-160 -46q-149 0 -256 139v-299h565v-266zM618 742v289q0 85 -59 85q-63 0 -63 -85v-290q0 -80 64 -80q58 0 58 81z" />
    <glyph glyph-name="uacute" unicode="&#xfa;" horiz-adv-x="1119" 
d="M1046 481q0 -515 -487 -515t-487 515v677q0 495 487 495t487 -495v-677zM625 319v974q0 85 -64 86q-30 1 -49 -25t-19 -61v-976q0 -77 65 -77q67 0 67 79z" />
    <glyph glyph-name="ucircumflex" unicode="&#xfb;" horiz-adv-x="1071" 
d="M1004 456q0 -249 -100 -360q-107 -120 -359 -120q-257 0 -368 117q-105 112 -105 359v440q0 208 105 326q118 133 353 133q474 0 474 -430v-465zM601 286v755q0 75 -59 75q-66 0 -66 -75v-756q0 -73 65 -74q60 -1 60 75z" />
    <glyph glyph-name="udieresis" unicode="&#xfc;" horiz-adv-x="1587" 
d="M1566 477q0 -245 -246 -386q-214 -123 -513 -125q-298 -2 -519 126q-249 145 -249 385v107l421 1v-222q0 -130 132 -130v602q-187 2 -320 90q-165 110 -165 315q0 177 154 283q139 96 331 96h420v-509q265 -20 398 -123q156 -122 156 -373v-137zM592 1130v235
q-73 -6 -99 -26q-31 -25 -31 -91q0 -80 31 -102q22 -16 99 -16zM1145 345v304q0 59 -30 99q-36 48 -102 48v-572q132 0 132 121z" />
    <glyph glyph-name="yacute" unicode="&#xfd;" horiz-adv-x="1473" 
d="M1464 436q0 -190 -159 -326q-155 -133 -361 -133l-404 -1q-211 0 -370 131q-164 135 -164 325v90h404v-307q0 -86 66 -86h59v616q-228 0 -331 52q-131 66 -131 233q0 299 462 299h401v-402q251 0 398 -136q130 -120 130 -290v-65zM537 945v169h-49q-75 0 -75 -77
q0 -92 76 -92h48zM1062 223l-1 444q0 79 -87 79h-35v-615h65q58 8 58 92z" />
    <glyph glyph-name="thorn" unicode="&#xfe;" horiz-adv-x="344" 
d="M307 1474q0 -219 -121 -311q-62 -48 -150 -68v117q59 32 68 90h-68v317h271v-145z" />
    <glyph glyph-name="ydieresis" unicode="&#xff;" horiz-adv-x="344" 
d="M307 1619v-145q0 -219 -121 -311q-62 -48 -150 -68v117q59 32 68 90h-68v317h271z" />
    </font>
</defs>
</svg>
